<svg width="190" height="80" viewBox="0 0 190 80" fill="none" xmlns="http://www.w3.org/2000/svg">
<g id="Frame" opacity="0.5" clip-path="url(#clip0_42_3961)">
<g id="Group">
<path id="Vector" opacity="0.6" d="M20.6 84.3L32.3 77.5L44 84.3V97.8L32.3 104.6L20.6 97.8V84.3Z" fill="#E2F5FC"/>
<path id="Vector_2" opacity="0.6" d="M140.8 62.2L148.4 57.8L156 62.2V71L148.4 75.4L140.8 71V62.2Z" fill="#E2F5FC"/>
<g id="Group_2" opacity="0.6">
<path id="Vector_3" d="M18.5 30L35 39.5V58.6L18.5 68.1L2 58.5V39.5L18.5 30ZM18.5 27.6L0 38.3V59.7L18.5 70.4L37 59.7V38.3L18.5 27.6Z" fill="#E2F5FC"/>
</g>
<g id="Group_3" opacity="0.6">
<path id="Vector_4" d="M110.4 59.8L116.6 63.4V70.6L110.4 74.2L104.2 70.6V63.4L110.4 59.8ZM110.4 58.9L103.4 62.9V70.9L110.4 74.9L117.4 70.9V62.9L110.4 58.9Z" fill="#E2F5FC"/>
</g>
<path id="Vector_5" d="M123.1 38.7L129 35.2L135 38.7V45.6L129 49L123.1 45.6V38.7Z" fill="#B6E5F7"/>
<path id="Vector_6" d="M145.6 -5.49998L160.5 -14.1L175.5 -5.49998V11.7L160.5 20.3L145.6 11.7V-5.49998Z" fill="#B6E5F7"/>
<g id="Group_4">
<path id="Vector_7" d="M172.7 40L182.4 45.6V56.8L172.7 62.4L163 56.8V45.6L172.7 40ZM172.7 38.6L161.9 44.9V57.4L172.7 63.7L183.5 57.4V44.9L172.7 38.6Z" fill="#B6E5F7"/>
</g>
<g id="Group_5">
<path id="Vector_8" d="M56.5 75.3L63.2 79.2V86.9L56.5 90.8L49.8 86.9V79.2L56.5 75.3ZM56.5 74.3L49 78.6V87.2L56.5 91.5L64 87.2V78.6L56.5 74.3Z" fill="#B6E5F7"/>
</g>
<path id="Vector_9" d="M24.5 15.7L43.2 4.79999L62 15.7V37.3L43.2 48.1L24.5 37.3V15.7Z" fill="#88D4F2"/>
<g id="Group_6">
<path id="Vector_10" d="M72.2 37.1L88 46.3V64.5L72.2 73.6L56.4 64.5V46.3L72.2 37.1ZM72.2 34.9L54.5 45.1V65.5L72.2 75.7L89.9 65.5V45.1L72.2 34.9Z" fill="#88D4F2"/>
</g>
<g id="Group_7">
<path id="Vector_11" d="M150.7 77.8L160.3 83.4V94.5L150.7 100.1L141.1 94.5V83.4L150.7 77.8ZM150.7 76.4L139.9 82.6V95.1L150.7 101.3L161.5 95.1V82.6L150.7 76.4Z" fill="#88D4F2"/>
</g>
<g id="Group_8">
<path id="Vector_12" d="M81.5 15.4L86.3 18.2V23.8L81.5 26.6L76.7 23.8V18.2L81.5 15.4ZM81.5 14.7L76.1 17.8V24L81.5 27.1L86.9 24V17.8L81.5 14.7Z" fill="#B6E5F7"/>
</g>
<g id="Group_9" opacity="0.4">
<path id="Vector_13" d="M39.8 59.6L53.7 67.6V83.7L39.8 91.7L25.9 83.7V67.6L39.8 59.6ZM39.8 57.7L24.2 66.7V84.7L39.8 93.7L55.4 84.7V66.7L39.8 57.7Z" fill="#B6E5F7"/>
</g>
<path id="Vector_14" opacity="0.3" d="M151.2 24.1L157.4 20.6L163.5 24.1V31.2L157.4 34.8L151.2 31.2V24.1Z" fill="#B6E5F7"/>
<path id="Vector_15" opacity="0.3" d="M175.5 14.5L182.6 10.3L189.8 14.5V22.7L182.6 26.9L175.5 22.7V14.5Z" fill="#B6E5F7"/>
<g id="Group_10" opacity="0.3">
<path id="Vector_16" d="M87.3 75.8L93.4 79.3V86.3L87.3 89.8L81.2 86.3V79.3L87.3 75.8ZM87.3 74.9L80.5 78.9V86.8L87.3 90.7L94.1 86.8V78.9L87.3 74.9Z" fill="#B6E5F7"/>
</g>
<g id="Group_11" opacity="0.6">
<path id="Vector_17" d="M177.4 77L182.8 80.1V86.3L177.4 89.4L172 86.3V80.1L177.4 77ZM177.4 76.8L171.9 80V86.4L177.4 89.6L182.9 86.4V80L177.4 76.8Z" fill="#E2F5FC"/>
</g>
<g id="Group_12" opacity="0.6">
<path id="Vector_18" d="M43.8 35.5L58.5 44V60.9L43.9 69.3L29.3 60.9V44L43.8 35.5ZM43.8 35L28.8 43.7V61L43.8 69.7L58.8 61V43.7L43.8 35Z" fill="#E2F5FC"/>
</g>
<g id="Group_13">
<path id="Vector_19" d="M61.8 -8.39999L72.2 -2.39999V9.70001L61.8 15.7L51.4 9.70001V-2.39999L61.8 -8.39999ZM61.8 -8.79999L51.1 -2.59999V9.80001L61.8 16L72.5 9.80001V-2.59999L61.8 -8.79999Z" fill="#B6E5F7"/>
</g>
<g id="Group_14">
<path id="Vector_20" d="M13.8 69.1L26.3 76.3V90.7L13.8 98L1.3 90.8V76.4L13.8 69.1ZM13.8 68.7L1 76.1V90.9L13.8 98.3L26.6 90.9V76.1L13.8 68.7Z" fill="#88D4F2"/>
</g>
<g id="Group_15">
<path id="Vector_21" d="M122.6 -3.59998L138.6 5.70002V24.2L122.6 33.5L106.6 24.2V5.70002L122.6 -3.59998ZM122.6 -4.09998L106.1 5.40002V24.4L122.6 33.9L139.1 24.4V5.40002L122.6 -4.09998Z" fill="#B6E5F7"/>
</g>
<g id="Group_16" opacity="0.3">
<path id="Vector_22" d="M99.6 16.8L119.7 28.4V51.6L99.6 63.2L79.5 51.5V28.4L99.6 16.8ZM99.6 16.1L79 28V51.8L99.6 63.7L120.2 51.8V28L99.6 16.1Z" fill="#B6E5F7"/>
</g>
<g id="Group_17" opacity="0.3">
<path id="Vector_23" d="M101.5 -10.6L107.2 -7.29999V-0.699989L101.5 2.60001L95.8 -0.699989V-7.29999L101.5 -10.6ZM101.5 -10.8L95.6 -7.39999V-0.599987L101.5 2.80001L107.4 -0.599987V-7.39999L101.5 -10.8Z" fill="#B6E5F7"/>
</g>
</g>
</g>
<defs>
<clipPath id="clip0_42_3961">
<rect width="189.8" height="147.6" fill="white" transform="translate(0 -43)"/>
</clipPath>
</defs>
</svg>
