<svg width="32" height="32" viewBox="0 0 32 32" fill="none" xmlns="http://www.w3.org/2000/svg">
<g clip-path="url(#clip0)">
<path d="M25.234 8.12633C24.7708 8.17798 24.3262 8.39749 24.0079 8.78317C22.7532 10.3051 20.9926 11.2893 19.0614 11.6935C18.0172 11.9119 17.0386 12.4755 16.3105 13.3676C14.7026 15.3376 14.9221 18.3034 16.8073 20.0096C18.8682 21.8751 22.0447 21.6253 23.7929 19.5043C24.4452 18.7127 24.804 17.7757 24.8814 16.8258C25.0448 14.8239 25.8892 12.9376 27.1669 11.3875C27.1669 11.3875 28.5485 8.6911 25.234 8.12633Z" fill="#DC9628"/>
<path d="M7.29825 13.3822C8.1527 12.0724 9.1694 10.1682 9.0807 8.62823C9.04421 7.99834 9.71846 7.58121 10.2608 7.90346C12.59 9.28676 15.6177 12.5541 9.54386 18.8615C7.07312 21.4271 5.25081 20.0607 5.05263 18.2687C4.86288 16.5552 6.35621 14.8261 7.29825 13.3822Z" fill="#F1B501"/>
<path d="M26.9284 29.125H3.94908C2.92452 29.125 1.96284 28.6299 1.36719 27.7962L0.0984142 26.0193C-0.148042 25.6741 0.0984142 25.1946 0.522835 25.1946H30.3553C30.7791 25.1946 31.0261 25.6741 30.7797 26.0193L29.5109 27.7962C28.9147 28.6304 27.953 29.125 26.9284 29.125Z" fill="#E6E6E6"/>
<path d="M26.6616 12.055C26.8222 11.8271 26.9889 11.6031 27.1669 11.3875C27.1669 11.3875 28.5485 8.69109 25.234 8.12576C24.7708 8.1774 24.3262 8.39691 24.0079 8.7826C23.7384 9.10933 23.4414 9.40632 23.1287 9.68309C20.7686 8.91958 17.8858 9.37095 14.7498 12.0589C14.4028 12.3565 13.8145 12.9853 12.9965 13.2929C12.6838 14.8081 11.6761 16.6467 9.54388 18.8609C7.07314 21.4265 5.25083 20.0601 5.05265 18.2681C4.8629 16.5547 6.35623 14.8255 7.29827 13.3816C7.71876 12.7366 8.17799 11.9478 8.5255 11.1293C8.18978 10.9159 7.81644 10.7767 7.37574 10.7767C3.83385 10.7773 2.24564 13.2177 2.24564 16.2279C2.24564 16.5401 2.27707 16.846 2.33714 17.143C2.50837 17.9941 2.55946 18.862 2.38262 19.712C2.29279 20.1443 2.24564 20.5867 2.24564 21.0369C2.24564 22.0435 2.55946 22.8766 3.11188 23.5688C3.65981 23.1798 4.329 22.9496 5.05265 22.9496C6.51848 22.9496 7.76255 23.8877 8.22514 25.1952H8.617C9.08016 23.8877 10.3237 22.9496 11.7895 22.9496C13.2553 22.9496 14.4994 23.8877 14.962 25.1952H15.3538C15.817 23.8877 17.0605 22.9496 18.5263 22.9496C19.9922 22.9496 21.2362 23.8877 21.6988 25.1952H22.0907C22.5538 23.8877 23.7974 22.9496 25.2632 22.9496C26.2675 22.9496 27.1602 23.3965 27.7766 24.0938C29.3805 23.0001 30.4977 21.5635 30.8772 19.7547C31.3628 17.4406 28.6619 14.2844 26.6616 12.055Z" fill="#F4C44E"/>
<path d="M31.7026 4.448C31.4988 4.19705 31.2366 4.04828 30.9604 3.98652C30.7875 3.94779 30.6488 3.83326 30.5775 3.67101C30.4641 3.41165 30.2677 3.18259 29.9825 3.03045C29.475 2.7593 28.8243 2.85024 28.4117 3.25165C28.0832 3.57108 27.9569 4.0028 28.0159 4.41038C28.0827 4.87017 27.9928 5.33894 27.697 5.69768L25.622 8.21501C26.8251 8.51873 27.2849 9.14245 27.4095 9.76168L29.5204 7.20112C29.8163 6.84238 30.2592 6.66442 30.7235 6.64196C31.135 6.62231 31.5347 6.41572 31.7857 6.03228C32.1001 5.55003 32.0658 4.89487 31.7026 4.448Z" fill="#D2D5D7"/>
<path d="M25.234 8.12633C24.7708 8.17798 24.3262 8.39749 24.0079 8.78317C22.7532 10.3051 20.9926 11.2893 19.0614 11.6935C18.0172 11.9119 17.0386 12.4755 16.3105 13.3676C14.7026 15.3376 14.9221 18.3034 16.8073 20.0096C18.8682 21.8751 22.0447 21.6253 23.7929 19.5043C24.4452 18.7127 24.804 17.7757 24.8814 16.8258C25.0448 14.8239 25.8892 12.9376 27.1669 11.3875C27.1669 11.3875 28.5485 8.6911 25.234 8.12633Z" fill="#DC9628"/>
<path d="M26.9284 29.125H3.94908C2.92452 29.125 1.96284 28.6299 1.36719 27.7962L0.0984142 26.0193C-0.148042 25.6741 0.0984142 25.1946 0.522835 25.1946H30.3553C30.7791 25.1946 31.0261 25.6741 30.7797 26.0193L29.5109 27.7962C28.9147 28.6304 27.953 29.125 26.9284 29.125Z" fill="#E6E6E6"/>
<path d="M26.9284 29.125H3.94908C2.92452 29.125 1.96284 28.6299 1.36719 27.7962L0.0984142 26.0193C-0.148042 25.6741 0.0984142 25.1946 0.522835 25.1946H30.3553C30.7791 25.1946 31.0261 25.6741 30.7797 26.0193L29.5109 27.7962C28.9147 28.6304 27.953 29.125 26.9284 29.125Z" fill="#E6E6E6"/>
<path d="M26.9284 29.125H3.94908C2.92452 29.125 1.96284 28.6299 1.36719 27.7962L0.0984142 26.0193C-0.148042 25.6741 0.0984142 25.1946 0.522835 25.1946H30.3553C30.7791 25.1946 31.0261 25.6741 30.7797 26.0193L29.5109 27.7962C28.9147 28.6304 27.953 29.125 26.9284 29.125Z" fill="#E6E6E6"/>
<path d="M14.9621 25.1952C14.499 23.8877 13.2555 22.9496 11.7896 22.9496C10.3238 22.9496 9.07975 23.8877 8.61716 25.1952H14.9621Z" fill="#0094D9"/>
<path d="M8.22529 25.1952C7.76213 23.8877 6.51863 22.9496 5.0528 22.9496C3.58698 22.9496 2.34291 23.8877 1.88031 25.1952H8.22529Z" fill="#75C881"/>
<path d="M21.699 25.1952C21.2358 23.8877 19.9923 22.9496 18.5265 22.9496C17.0607 22.9496 15.8166 23.8877 15.354 25.1952H21.699Z" fill="#75C881"/>
<path d="M28.4358 25.1952C27.9727 23.8877 26.7292 22.9496 25.2633 22.9496C23.7975 22.9496 22.5534 23.8877 22.0909 25.1952H28.4358Z" fill="#0094D9"/>
<path d="M26.9284 29.125H3.94908C2.92452 29.125 1.96284 28.6299 1.36719 27.7962L0.0984142 26.0193C-0.148042 25.6741 0.0984142 25.1946 0.522835 25.1946H30.3553C30.7791 25.1946 31.0261 25.6741 30.7797 26.0193L29.5109 27.7962C28.9147 28.6304 27.953 29.125 26.9284 29.125Z" fill="#E6E6E6"/>
<path d="M26.9284 29.125H3.94908C2.92452 29.125 1.96284 28.6299 1.36719 27.7962L0.0984142 26.0193C-0.148042 25.6741 0.0984142 25.1946 0.522835 25.1946H30.3553C30.7791 25.1946 31.0261 25.6741 30.7797 26.0193L29.5109 27.7962C28.9147 28.6304 27.953 29.125 26.9284 29.125Z" fill="#E6E6E6"/>
</g>
<defs>
<clipPath id="clip0">
<rect width="32" height="32" fill="white"/>
</clipPath>
</defs>
</svg>
