<?xml version="1.0"?>
<svg xmlns="http://www.w3.org/2000/svg" xmlns:xlink="http://www.w3.org/1999/xlink" xmlns:svgjs="http://svgjs.com/svgjs" version="1.1" width="512" height="512" x="0" y="0" viewBox="0 0 512 512" style="enable-background:new 0 0 512 512" xml:space="preserve" class=""><g><g xmlns="http://www.w3.org/2000/svg"><path d="m167.002 148.391c26.709 3.627 51.507 13.349 72.939 27.723 21.401-14.353 46.158-24.066 72.823-27.706-21.366-12.622-46.282-19.874-72.895-19.874-26.601 0-51.507 7.245-72.867 19.857z" fill="#d5d5d5" data-original="#000000" style="" class=""/><path d="m165.061 68.66c-5.858 5.858-5.859 15.355-.001 21.213 5.856 5.857 15.354 5.86 21.213.001 7.128-7.127 11.054-16.601 11.054-26.674 0-10.074-3.926-19.547-11.053-26.673-3.026-3.026-3.021-7.899 0-10.92 5.858-5.858 5.858-15.355 0-21.213-5.857-5.858-15.355-5.858-21.213 0-7.128 7.127-11.053 16.6-11.053 26.673s3.925 19.545 11.054 26.674c3.023 3.024 3.02 7.898-.001 10.919z" fill="#d5d5d5" data-original="#000000" style="" class=""/><path d="m245.395 68.66c-5.858 5.858-5.859 15.355-.001 21.213 5.856 5.857 15.354 5.86 21.213.001 7.128-7.127 11.054-16.601 11.054-26.674 0-10.074-3.926-19.547-11.053-26.673-3.026-3.026-3.021-7.899 0-10.92 5.858-5.858 5.858-15.355 0-21.213-5.857-5.858-15.355-5.858-21.213 0-7.128 7.127-11.053 16.6-11.053 26.673s3.925 19.545 11.054 26.674c3.023 3.024 3.02 7.898-.001 10.919z" fill="#d5d5d5" data-original="#000000" style="" class=""/><path d="m325.728 68.66c-5.858 5.858-5.859 15.355-.001 21.213 5.856 5.857 15.354 5.86 21.213.001 7.128-7.127 11.054-16.601 11.054-26.674 0-10.074-3.926-19.547-11.053-26.673-3.026-3.026-3.021-7.899 0-10.92 5.858-5.858 5.858-15.355 0-21.213-5.857-5.858-15.355-5.858-21.213 0-7.128 7.127-11.053 16.6-11.053 26.673s3.925 19.545 11.054 26.674c3.024 3.024 3.021 7.898-.001 10.919z" fill="#d5d5d5" data-original="#000000" style="" class=""/><path d="m356.191 178.169c-6.487-.897-13.108-1.371-19.841-1.371-26.175 0-50.711 7.01-71.84 19.25 8.357 8.137 15.892 17.111 22.484 26.778 13.933-7.067 29.584-11.235 46.161-11.711 5.611-12.379 13.461-23.536 23.036-32.946z" fill="#d5d5d5" data-original="#000000" style="" class=""/><path d="m78.289 275.331h130.489c-14.302-20.697-38.184-34.267-65.245-34.267-27.06.001-50.942 13.571-65.244 34.267z" fill="#d5d5d5" data-original="#000000" style="" class=""/><path d="m112.467 497c0 8.284 6.716 15 15 15h257.066c8.284 0 15-6.716 15-15v-19.524h-287.066z" fill="#d5d5d5" data-original="#000000" style="" class=""/><path d="m497 305.331h-482c-8.284 0-15 6.716-15 15 0 70.221 56.925 127.146 127.145 127.146h257.709c70.221 0 127.146-56.925 127.146-127.146 0-8.284-6.716-15-15-15z" fill="#d5d5d5" data-original="#000000" style="" class=""/><path d="m43.935 275.331c17.15-37.899 55.295-64.267 99.599-64.267s82.449 26.368 99.599 64.267h36.729c-18.88-57.227-72.776-98.533-136.328-98.533-63.822 0-117.906 41.66-136.566 99.266 2.608-.472 5.29-.732 8.032-.732h28.935z" fill="#d5d5d5" data-original="#000000" style="" class=""/><path d="m497 176.798h-64.267c-43.778 0-79.267 35.489-79.267 79.267v19.267h38.787l29.873-29.873c5.857-5.858 15.355-5.858 21.213 0s5.858 15.355 0 21.213l-8.66 8.66h62.321c4.221 0 8.303.597 12.179 1.688 1.826-6.677 2.821-13.698 2.821-20.955v-64.267c0-8.284-6.716-15-15-15z" fill="#d5d5d5" data-original="#000000" style="" class=""/><path d="m323.466 275.331v-19.267c0-4.777.309-9.482.906-14.099-8.011 1.214-15.625 3.631-22.661 7.054 3.818 8.433 6.967 17.229 9.409 26.311h12.346z" fill="#d5d5d5" data-original="#000000" style="" class=""/></g></g></svg>
