<svg id="Layer_1" enable-background="new 0 0 512 512" height="512" viewBox="0 0 512 512" width="512" xmlns="http://www.w3.org/2000/svg"><g><g fill="#e2e2e2"><g><path d="m129.794 477c31.173 18.772 66.858 30.814 105.052 34.081l1-.92v-33.161z"/><path d="m256 22c-135.31 0-245 109.69-245 245 0 38.079 8.689 74.127 24.19 106.272v-133.772c0-2.536 2.062-4.599 4.598-4.599h51.836l.101-.887c4.732-41.625 39.928-73.014 81.87-73.014 21.719 0 41.615 8.432 56.422 22.328 1.419-.215 2.871-.328 4.349-.328h174.778c15.911 0 28.856 12.945 28.856 28.856v206.774c0 4.288-.558 8.568-1.659 12.726l.903.493c39.609-43.522 63.756-101.365 63.756-164.849 0-135.31-109.69-245-245-245z"/></g><path d="m345.999 481.825c0-7.869-6.401-14.27-14.27-14.27h-19.946c-7.869 0-14.27 6.401-14.27 14.27v23.97l1 2.52c16.09-2.815 31.639-7.2 46.486-12.991l1-2.432z"/></g><g><g><path d="m407.866 294.15.246 1.2c6.726 32.903 10.137 66.565 10.137 100.053v31.028c0 5.606-4.183 10.454-9.73 11.276l-.854.126v20.357l1 .422c10.22-8.149 19.791-17.107 28.581-26.764 1.138-4.215 1.755-8.644 1.755-13.219v-123.479l-3.941-1z" fill="#fed2a4"/><g fill="#0172fb"><path d="m406.832 437.847h-94.832v30.708h19.729c7.329 0 13.27 5.941 13.27 13.27v13.499c23.14-9.026 44.565-21.472 63.666-36.71v-20.928c-.599.097-1.208.161-1.833.161z"/><path d="m234.846 477v34.081c6.974.597 14.026.919 21.154.919 14.5 0 28.704-1.269 42.512-3.685v-26.49c0-1.704.333-3.328.918-4.825z"/></g><path d="m439 211.856c0-16.489-13.367-29.856-29.856-29.856h-174.778c-1.798 0-3.556.168-5.266.472 14.292 13.01 24.032 31.027 26.364 51.542l.101.887h51.836c2.536 0 4.599 2.063 4.599 4.599v199.347h94.832c6.857 0 12.416-5.559 12.416-12.416v-31.029c0-33.697-3.417-67.283-10.157-100.253h29.909z" fill="#fff"/><path d="m229.1 182.472c14.292 13.01 24.032 31.027 26.364 51.542l.101.887h51.836c2.54 0 4.599 2.059 4.599 4.599v199.347h12.905v-211.252c0-3.092-2.507-5.599-5.599-5.599h-42.459c-4.691 0-8.785-3.255-9.759-7.844-2.511-11.841-7.541-22.748-14.489-32.152h-18.233c-1.798 0-3.555.168-5.266.472z" fill="#f8f6f6"/><g><path d="m254.214 84.184h9.918v-13.415c0-13.232 10.727-23.959 23.959-23.959h67.326c13.232 0 23.959 10.727 23.959 23.959v13.416h9.918c2.202 0 4.301.45 6.21 1.261v-35.446c0-27.614-22.386-50-50-50h-47.502c-27.614 0-50 22.386-50 50v35.445c1.912-.811 4.01-1.261 6.212-1.261z" fill="#883f2e"/><g><path d="m340 0h-41.996c-27.614 0-50 22.386-50 50v35.445c1.909-.811 4.008-1.261 6.21-1.261h9.918v-13.415c0-13.232 10.727-23.959 23.959-23.959h2.02c1.648-26.127 23.348-46.81 49.889-46.81z" fill="#6d3326"/></g><g fill="#ffbd86"><path d="m264.133 83.184h-6.848c-11.046 0-20 8.954-20 20v6.275c0 11.046 8.954 20 20 20h6.848z"/><path d="m386.225 83.184h-6.848v46.275h6.848c11.046 0 20-8.954 20-20v-6.275c0-11.045-8.954-20-20-20z"/></g><path d="m338.778 172.976h-34.046c-1.997 0-3.959-.151-5.88-.431v20.769c0 12.649 10.254 22.903 22.903 22.903 12.649 0 22.903-10.254 22.903-22.903v-20.769c-1.92.28-3.882.431-5.88.431z" fill="#ffbd86"/><g><path d="m319.194 193.314v-20.337h-14.462c-1.997 0-3.959-.151-5.88-.431v20.769c0 12.649 10.254 22.903 22.903 22.903 3.654 0 7.106-.86 10.171-2.382-7.544-3.748-12.732-11.528-12.732-20.522z" fill="#f6a96c"/></g><g><path d="m338.778 173.976h-34.046c-22.975 0-41.599-18.625-41.599-41.599v-61.608c0-13.785 11.175-24.96 24.96-24.96h67.326c13.785 0 24.96 11.175 24.96 24.96v61.608c-.001 22.975-18.626 41.599-41.601 41.599z" fill="#fed2a4"/></g><path d="m294.755 132.377v-61.608c0-13.785 11.175-24.96 24.96-24.96h-31.622c-13.785 0-24.96 11.175-24.96 24.96v61.608c0 22.975 18.625 41.599 41.599 41.599h31.622c-22.974 0-41.599-18.624-41.599-41.599z" fill="#ffbd86"/></g><g><g><g><path d="m293.82 100.76c-4.142 0-7.5-3.358-7.5-7.5v-8.834c0-4.142 3.358-7.5 7.5-7.5s7.5 3.358 7.5 7.5v8.834c0 4.142-3.358 7.5-7.5 7.5z" fill="#d88a55"/></g><g><path d="m349.69 100.76c-4.142 0-7.5-3.358-7.5-7.5v-8.834c0-4.142 3.358-7.5 7.5-7.5s7.5 3.358 7.5 7.5v8.834c0 4.142-3.357 7.5-7.5 7.5z" fill="#d88a55"/></g></g><g><path d="m323.644 151.121c-8.78 0-17.038-3.423-23.253-9.638-2.929-2.929-2.929-7.678 0-10.606 2.929-2.929 7.678-2.929 10.606 0 3.382 3.382 7.873 5.245 12.646 5.245s9.265-1.863 12.647-5.245c2.929-2.929 7.678-2.929 10.606 0 2.929 2.929 2.929 7.678 0 10.606-6.214 6.215-14.472 9.638-23.252 9.638z" fill="#d88a55"/></g><g><path d="m327.844 120.884h-5.699c-5.707 0-10.35-4.643-10.35-10.35v-13.297c0-4.142 3.358-7.5 7.5-7.5s7.5 3.358 7.5 7.5v8.647h1.048c4.142 0 7.5 3.358 7.5 7.5s-3.357 7.5-7.499 7.5z" fill="#d88a55"/></g></g></g></g><g><path d="m307.401 233.901h-50.944c-4.725-41.586-40.011-73.901-82.862-73.901s-78.137 32.315-82.863 73.901h-50.943c-3.092 0-5.599 2.507-5.599 5.599v232.901c0 3.092 2.507 5.599 5.599 5.599h267.613c3.092 0 5.599-2.507 5.599-5.599v-232.901c-.001-3.092-2.508-5.599-5.6-5.599z" fill="#9c9c9c"/><path d="m72.19 472.401v-22.394h-4.409c-3.092 0-5.599-2.507-5.599-5.599v-176.915c0-3.092 2.507-5.599 5.599-5.599h4.409v-22.394c0-3.092 2.507-5.599 5.599-5.599h-38c-3.092 0-5.599 2.507-5.599 5.599v232.901c0 3.092 2.507 5.599 5.599 5.599h38c-3.092 0-5.599-2.507-5.599-5.599z" fill="#868686"/><path d="m279.408 261.894h-51.075c-7.726 22.827-29.336 39.31-54.738 39.31s-47.013-16.483-54.738-39.31h-51.075c-3.092 0-5.599 2.507-5.599 5.599v176.915c0 3.092 2.507 5.599 5.599 5.599h211.627c3.092 0 5.599-2.507 5.599-5.599v-176.915c-.001-3.092-2.508-5.599-5.6-5.599z" fill="#fff"/><path d="m104.176 444.408v-176.915c0-3.092 2.507-5.599 5.599-5.599h-41.993c-3.092 0-5.599 2.507-5.599 5.599v176.915c0 3.092 2.507 5.599 5.599 5.599h41.993c-3.092 0-5.599-2.507-5.599-5.599z" fill="#f8f6f6"/><g><g><circle cx="173.595" cy="243.419" fill="#d8ecfe" r="58.785"/></g><path d="m146 243.419c0-27.015 18.324-49.817 43.19-56.669-4.97-1.37-10.196-2.116-15.595-2.116-32.413 0-58.785 26.371-58.785 58.785s26.372 58.785 58.785 58.785c5.399 0 10.625-.747 15.595-2.116-24.866-6.852-43.19-29.654-43.19-56.669z" fill="#b3dafe"/><path d="m209.222 208.216c-2.809-3.043-7.553-3.234-10.598-.423l-24.931 23.015c5.76.044 10.601 3.969 12.059 9.282l23.047-21.276c3.043-2.81 3.232-7.555.423-10.598z" fill="#8ac9fe"/><g><circle cx="173.595" cy="243.419" fill="#60b7ff" r="13.617"/></g></g><g><g><path d="m120.75 313.25h-33.5c-2.347 0-4.25-1.903-4.25-4.25v-17c0-2.347 1.903-4.25 4.25-4.25h33.5c2.347 0 4.25 1.903 4.25 4.25v17c0 2.347-1.903 4.25-4.25 4.25z" fill="#22b27f"/></g><path d="m103 309v-17c0-2.347 1.903-4.25 4.25-4.25h-20c-2.347 0-4.25 1.903-4.25 4.25v17c0 2.347 1.903 4.25 4.25 4.25h20c-2.347 0-4.25-1.903-4.25-4.25z" fill="#09a76d"/><g><path d="m214.75 351.5h-127.5c-2.347 0-4.25-1.903-4.25-4.25v-17c0-2.347 1.903-4.25 4.25-4.25h127.5c2.347 0 4.25 1.903 4.25 4.25v17c0 2.347-1.903 4.25-4.25 4.25z" fill="#fac600"/></g><path d="m103 347.25v-17c0-2.347 1.903-4.25 4.25-4.25h-20c-2.347 0-4.25 1.903-4.25 4.25v17c0 2.347 1.903 4.25 4.25 4.25h20c-2.347 0-4.25-1.903-4.25-4.25z" fill="#e8b800"/><g><path d="m156 389.75h-68.75c-2.347 0-4.25-1.903-4.25-4.25v-17c0-2.347 1.903-4.25 4.25-4.25h68.75c2.347 0 4.25 1.903 4.25 4.25v17c0 2.347-1.903 4.25-4.25 4.25z" fill="#8ac9fe"/></g><path d="m104 385.5v-17c0-2.347 1.903-4.25 4.25-4.25h-21c-2.347 0-4.25 1.903-4.25 4.25v17c0 2.347 1.903 4.25 4.25 4.25h21c-2.347 0-4.25-1.903-4.25-4.25z" fill="#60b7ff"/><g><path d="m242.75 428h-155.5c-2.347 0-4.25-1.903-4.25-4.25v-17c0-2.347 1.903-4.25 4.25-4.25h155.5c2.347 0 4.25 1.903 4.25 4.25v17c0 2.347-1.903 4.25-4.25 4.25z" fill="#fe9901"/></g><path d="m103 423.75v-17c0-2.347 1.903-4.25 4.25-4.25h-20c-2.347 0-4.25 1.903-4.25 4.25v17c0 2.347 1.903 4.25 4.25 4.25h20c-2.347 0-4.25-1.903-4.25-4.25z" fill="#fb8801"/></g></g></g></svg>