<svg id="Layer_1" enable-background="new 0 0 512.089 512.089" height="512" viewBox="0 0 512.089 512.089" width="512" xmlns="http://www.w3.org/2000/svg"><g><g><g><path d="m304.09 460.413c-93.532 0-178.265-47.129-223.199-124.958-46.863-81.167-43.163-183.138 9.655-266.118 2.631-4.132 7.112-6.719 12.006-6.931 98.291-4.242 188.431 43.529 235.293 124.697s43.163 183.139-9.655 266.118c-2.631 4.132-7.112 6.719-12.006 6.931-4.043.174-8.081.261-12.094.261z" fill="#ffd321"/></g></g><g><path d="m300.64 6.087c-82.492 46.481-133.353 130.462-133.353 221.263 0 93.725 54.189 180.184 141.421 225.637 2.173 1.132 4.552 1.698 6.932 1.698s4.76-.566 6.932-1.697c87.232-45.453 141.422-131.912 141.422-225.637 0-90.797-50.856-174.773-133.341-221.256-2.662-1.501-27.356-1.505-30.013-.008z" fill="#ff9d21"/></g><path d="m330.652 6.094c-1.331-.75-8.172-1.126-15.012-1.127v449.718c2.38 0 4.76-.566 6.932-1.697 87.232-45.453 141.422-131.912 141.422-225.637 0-90.798-50.857-174.775-133.342-221.257z" fill="#ff7d43"/><path d="m462.025 196.523c-1.509-11.786-3.88-23.388-7.057-34.738l-124.328 118.685v-88.002l98.575-90.742c-5.146-8.672-10.822-17.062-17-25.127l-81.575 75.093v-145.605c-2.657-1.497-5.346-2.955-8.068-4.374-4.344-2.264-9.52-2.264-13.863 0-2.722 1.418-5.412 2.876-8.068 4.374v146.196l-82.713-74.194c-6.114 8.102-11.724 16.526-16.803 25.228l99.516 89.266v86.732l-122.793-122.784c-3.433 11.29-6.06 22.844-7.833 34.593l130.625 130.616v175.349c0 8.284 6.716 15 15 15s15-6.716 15-15v-175.144z" fill="#ffd321"/><path d="m454.968 161.785-124.328 118.685v-88.002l98.575-90.742c-5.146-8.672-10.822-17.062-17-25.127l-81.575 75.093v-145.605c-2.657-1.497-5.346-2.955-8.068-4.374-2.172-1.132-4.552-1.698-6.932-1.698v512.073c8.284 0 15-6.716 15-15v-175.143l131.385-125.422c-1.509-11.785-3.88-23.387-7.057-34.738z" fill="#ff9d21"/><g><path d="m497.06 512.031c-3.839 0-7.678-1.464-10.606-4.394l-482.031-482.03c-5.858-5.858-5.858-15.355 0-21.213 5.857-5.858 15.355-5.858 21.213 0l482.031 482.031c5.858 5.858 5.858 15.355 0 21.213-2.929 2.929-6.768 4.393-10.607 4.393z" fill="#ff5959"/></g><path d="m507.666 486.425-192.026-192.027v42.426l170.813 170.814c2.929 2.929 6.768 4.394 10.606 4.394s7.678-1.464 10.606-4.394c5.859-5.858 5.859-15.355.001-21.213z" fill="#e63a57"/></g></svg>